HIERARCHY
ROOT mixamorig2:Hips
{
	OFFSET 0.000401 100.080734 1.193004
	CHANNELS 6 Xposition Yposition Zposition Xrotation Yrotation Zrotation
	JOINT mixamorig2:Spine
	{
		OFFSET 0.000000 8.951164 -0.286642
		CHANNELS 6 Xposition Yposition Zposition Xrotation Yrotation Zrotation
		JOINT mixamorig2:Spine1
		{
			OFFSET 0.000000 10.443016 -0.334416
			CHANNELS 3 Xrotation Yrotation Zrotation
			JOINT mixamorig2:Spine2
			{
				OFFSET -0.000000 11.934875 -0.382189
				CHANNELS 6 Xposition Yposition Zposition Xrotation Yrotation Zrotation
				JOINT mixamorig2:Neck
				{
					OFFSET 0.000000 13.426727 -0.429963
					CHANNELS 6 Xposition Yposition Zposition Xrotation Yrotation Zrotation
					JOINT mixamorig2:Head
					{
						OFFSET 0.000000 8.477280 0.443076
						CHANNELS 6 Xposition Yposition Zposition Xrotation Yrotation Zrotation
						JOINT mixamorig2:HeadTop_End
						{
							OFFSET 0.000000 21.306763 1.113628
							CHANNELS 6 Xposition Yposition Zposition Xrotation Yrotation Zrotation
							End Site
							{
								OFFSET 0.000000 21.335846 0.000000
							}
						}
					}
				}
				JOINT mixamorig2:LeftShoulder
				{
					OFFSET 5.225270 11.895874 -0.427614
					CHANNELS 6 Xposition Yposition Zposition Xrotation Yrotation Zrotation
					JOINT mixamorig2:LeftArm
					{
						OFFSET 10.405485 -3.014740 0.004701
						CHANNELS 6 Xposition Yposition Zposition Xrotation Yrotation Zrotation
						JOINT mixamorig2:LeftForeArm
						{
							OFFSET 25.316505 -2.258133 -2.180183
							CHANNELS 3 Xrotation Yrotation Zrotation
							JOINT mixamorig2:LeftHand
							{
								OFFSET 24.444893 1.498306 0.870077
								CHANNELS 3 Xrotation Yrotation Zrotation
								JOINT mixamorig2:LeftHandThumb1
								{
									OFFSET 2.777336 -1.335144 3.119181
									CHANNELS 6 Xposition Yposition Zposition Xrotation Yrotation Zrotation
									JOINT mixamorig2:LeftHandThumb2
									{
										OFFSET 2.221863 -1.068069 2.495345
										CHANNELS 6 Xposition Yposition Zposition Xrotation Yrotation Zrotation
										JOINT mixamorig2:LeftHandThumb3
										{
											OFFSET 2.339340 -1.267441 1.553794
											CHANNELS 6 Xposition Yposition Zposition Xrotation Yrotation Zrotation
											JOINT mixamorig2:LeftHandThumb4
											{
												OFFSET 2.048599 -0.536865 0.831264
												CHANNELS 6 Xposition Yposition Zposition Xrotation Yrotation Zrotation
												End Site
												{
													OFFSET 1.787041 -0.527359 1.305532
												}
											}
										}
									}
								}
								JOINT mixamorig2:LeftHandIndex1
								{
									OFFSET 8.911644 -0.521713 3.864252
									CHANNELS 6 Xposition Yposition Zposition Xrotation Yrotation Zrotation
									JOINT mixamorig2:LeftHandIndex2
									{
										OFFSET 3.059845 -0.215408 0.228803
										CHANNELS 6 Xposition Yposition Zposition Xrotation Yrotation Zrotation
										JOINT mixamorig2:LeftHandIndex3
										{
											OFFSET 2.711075 -0.663422 0.226076
											CHANNELS 6 Xposition Yposition Zposition Xrotation Yrotation Zrotation
											JOINT mixamorig2:LeftHandIndex4
											{
												OFFSET 2.368217 -0.577866 0.197348
												CHANNELS 6 Xposition Yposition Zposition Xrotation Yrotation Zrotation
												End Site
												{
													OFFSET 2.368538 -0.577957 0.193201
												}
											}
										}
									}
								}
								JOINT mixamorig2:LeftHandMiddle1
								{
									OFFSET 8.960663 -0.277771 1.460124
									CHANNELS 6 Xposition Yposition Zposition Xrotation Yrotation Zrotation
									JOINT mixamorig2:LeftHandMiddle2
									{
										OFFSET 3.296608 -0.231995 0.133281
										CHANNELS 6 Xposition Yposition Zposition Xrotation Yrotation Zrotation
										JOINT mixamorig2:LeftHandMiddle3
										{
											OFFSET 2.998512 -0.794632 0.145683
											CHANNELS 6 Xposition Yposition Zposition Xrotation Yrotation Zrotation
											JOINT mixamorig2:LeftHandMiddle4
											{
												OFFSET 2.642899 -0.688507 0.127909
												CHANNELS 6 Xposition Yposition Zposition Xrotation Yrotation Zrotation
												End Site
												{
													OFFSET 2.643066 -0.688583 0.123986
												}
											}
										}
									}
								}
								JOINT mixamorig2:LeftHandRing1
								{
									OFFSET 9.070107 -0.353699 -0.590426
									CHANNELS 6 Xposition Yposition Zposition Xrotation Yrotation Zrotation
									JOINT mixamorig2:LeftHandRing2
									{
										OFFSET 2.741226 -0.232651 -0.019853
										CHANNELS 6 Xposition Yposition Zposition Xrotation Yrotation Zrotation
										JOINT mixamorig2:LeftHandRing3
										{
											OFFSET 2.657944 -0.845871 0.000170
											CHANNELS 6 Xposition Yposition Zposition Xrotation Yrotation Zrotation
											JOINT mixamorig2:LeftHandRing4
											{
												OFFSET 2.292778 -0.648102 -0.002023
												CHANNELS 6 Xposition Yposition Zposition Xrotation Yrotation Zrotation
												End Site
												{
													OFFSET 2.292755 -0.648163 -0.004113
												}
											}
										}
									}
								}
								JOINT mixamorig2:LeftHandPinky1
								{
									OFFSET 8.657875 -0.562546 -2.660492
									CHANNELS 6 Xposition Yposition Zposition Xrotation Yrotation Zrotation
									JOINT mixamorig2:LeftHandPinky2
									{
										OFFSET 2.459373 -0.319016 0.020672
										CHANNELS 6 Xposition Yposition Zposition Xrotation Yrotation Zrotation
										JOINT mixamorig2:LeftHandPinky3
										{
											OFFSET 2.026375 -0.468338 0.024184
											CHANNELS 6 Xposition Yposition Zposition Xrotation Yrotation Zrotation
											JOINT mixamorig2:LeftHandPinky4
											{
												OFFSET 1.799408 -0.396194 0.020881
												CHANNELS 6 Xposition Yposition Zposition Xrotation Yrotation Zrotation
												End Site
												{
													OFFSET 1.799408 -0.396225 0.019876
												}
											}
										}
									}
								}
							}
						}
					}
				}
				JOINT mixamorig2:RightShoulder
				{
					OFFSET -5.225270 11.895874 -0.432313
					CHANNELS 6 Xposition Yposition Zposition Xrotation Yrotation Zrotation
					JOINT mixamorig2:RightArm
					{
						OFFSET -10.405491 -3.014709 -0.004700
						CHANNELS 6 Xposition Yposition Zposition Xrotation Yrotation Zrotation
						JOINT mixamorig2:RightForeArm
						{
							OFFSET -25.316505 -2.258133 -2.163533
							CHANNELS 3 Xrotation Yrotation Zrotation
							JOINT mixamorig2:RightHand
							{
								OFFSET -24.444889 1.498276 0.898457
								CHANNELS 3 Xrotation Yrotation Zrotation
								JOINT mixamorig2:RightHandThumb1
								{
									OFFSET -2.497948 -1.215515 2.916487
									CHANNELS 6 Xposition Yposition Zposition Xrotation Yrotation Zrotation
									JOINT mixamorig2:RightHandThumb2
									{
										OFFSET -1.998367 -0.972397 2.333192
										CHANNELS 6 Xposition Yposition Zposition Xrotation Yrotation Zrotation
										JOINT mixamorig2:RightHandThumb3
										{
											OFFSET -2.439003 -1.285568 1.731896
											CHANNELS 6 Xposition Yposition Zposition Xrotation Yrotation Zrotation
											JOINT mixamorig2:RightHandThumb4
											{
												OFFSET -2.188538 -1.177322 1.346566
												CHANNELS 6 Xposition Yposition Zposition Xrotation Yrotation Zrotation
												End Site
												{
													OFFSET -1.989578 -1.164322 1.635543
												}
											}
										}
									}
								}
								JOINT mixamorig2:RightHandIndex1
								{
									OFFSET -8.954491 -0.355988 3.811164
									CHANNELS 6 Xposition Yposition Zposition Xrotation Yrotation Zrotation
									JOINT mixamorig2:RightHandIndex2
									{
										OFFSET -3.007729 -0.359833 0.288444
										CHANNELS 6 Xposition Yposition Zposition Xrotation Yrotation Zrotation
										JOINT mixamorig2:RightHandIndex3
										{
											OFFSET -2.754227 -0.734680 0.284436
											CHANNELS 6 Xposition Yposition Zposition Xrotation Yrotation Zrotation
											JOINT mixamorig2:RightHandIndex4
											{
												OFFSET -2.397964 -0.334747 0.232329
												CHANNELS 6 Xposition Yposition Zposition Xrotation Yrotation Zrotation
												End Site
												{
													OFFSET -2.397911 -0.334702 0.233005
												}
											}
										}
									}
								}
								JOINT mixamorig2:RightHandMiddle1
								{
									OFFSET -8.892281 -0.452988 1.476768
									CHANNELS 6 Xposition Yposition Zposition Xrotation Yrotation Zrotation
									JOINT mixamorig2:RightHandMiddle2
									{
										OFFSET -3.195786 -0.007690 0.063549
										CHANNELS 6 Xposition Yposition Zposition Xrotation Yrotation Zrotation
										JOINT mixamorig2:RightHandMiddle3
										{
											OFFSET -3.083305 -0.799866 0.088820
											CHANNELS 6 Xposition Yposition Zposition Xrotation Yrotation Zrotation
											JOINT mixamorig2:RightHandMiddle4
											{
												OFFSET -2.562057 -1.008820 0.085763
												CHANNELS 6 Xposition Yposition Zposition Xrotation Yrotation Zrotation
												End Site
												{
													OFFSET -2.562019 -1.008774 0.087573
												}
											}
										}
									}
								}
								JOINT mixamorig2:RightHandRing1
								{
									OFFSET -9.127327 -0.285721 -0.628775
									CHANNELS 6 Xposition Yposition Zposition Xrotation Yrotation Zrotation
									JOINT mixamorig2:RightHandRing2
									{
										OFFSET -2.851372 -0.321930 -0.027776
										CHANNELS 6 Xposition Yposition Zposition Xrotation Yrotation Zrotation
										JOINT mixamorig2:RightHandRing3
										{
											OFFSET -2.564888 -0.830017 -0.010143
											CHANNELS 6 Xposition Yposition Zposition Xrotation Yrotation Zrotation
											JOINT mixamorig2:RightHandRing4
											{
												OFFSET -2.238480 -0.470093 -0.015774
												CHANNELS 6 Xposition Yposition Zposition Xrotation Yrotation Zrotation
												End Site
												{
													OFFSET -2.238487 -0.470093 -0.015857
												}
											}
										}
									}
								}
								JOINT mixamorig2:RightHandPinky1
								{
									OFFSET -8.514366 -0.713730 -2.584844
									CHANNELS 6 Xposition Yposition Zposition Xrotation Yrotation Zrotation
									JOINT mixamorig2:RightHandPinky2
									{
										OFFSET -2.533974 -0.132950 -0.068521
										CHANNELS 6 Xposition Yposition Zposition Xrotation Yrotation Zrotation
										JOINT mixamorig2:RightHandPinky3
										{
											OFFSET -2.084183 -0.507675 -0.046603
											CHANNELS 6 Xposition Yposition Zposition Xrotation Yrotation Zrotation
											JOINT mixamorig2:RightHandPinky4
											{
												OFFSET -1.899948 -0.434219 -0.043102
												CHANNELS 6 Xposition Yposition Zposition Xrotation Yrotation Zrotation
												End Site
												{
													OFFSET -1.899994 -0.434174 -0.041793
												}
											}
										}
									}
								}
							}
						}
					}
				}
			}
		}
	}
	JOINT mixamorig2:LeftUpLeg
	{
		OFFSET 8.899668 -4.969727 -0.781577
		CHANNELS 6 Xposition Yposition Zposition Xrotation Yrotation Zrotation
		JOINT mixamorig2:LeftLeg
		{
			OFFSET 3.062883 -42.749832 -0.694436
			CHANNELS 3 Xrotation Yrotation Zrotation
			JOINT mixamorig2:LeftFoot
			{
				OFFSET 2.562582 -42.568401 -4.052387
				CHANNELS 3 Xrotation Yrotation Zrotation
				JOINT mixamorig2:LeftToeBase
				{
					OFFSET 0.357713 -8.547654 13.291756
					CHANNELS 6 Xposition Yposition Zposition Xrotation Yrotation Zrotation
					JOINT mixamorig2:LeftToe_End
					{
						OFFSET 0.306569 0.162115 6.425951
						CHANNELS 3 Xrotation Yrotation Zrotation
						End Site
						{
							OFFSET 0.306568 0.162116 6.425950
						}
					}
				}
			}
		}
	}
	JOINT mixamorig2:RightUpLeg
	{
		OFFSET -8.899668 -4.969727 -0.953905
		CHANNELS 6 Xposition Yposition Zposition Xrotation Yrotation Zrotation
		JOINT mixamorig2:RightLeg
		{
			OFFSET -3.062883 -42.749836 -0.564207
			CHANNELS 3 Xrotation Yrotation Zrotation
			JOINT mixamorig2:RightFoot
			{
				OFFSET -2.562577 -42.568367 -4.016928
				CHANNELS 3 Xrotation Yrotation Zrotation
				JOINT mixamorig2:RightToeBase
				{
					OFFSET -0.357718 -8.547743 13.332318
					CHANNELS 6 Xposition Yposition Zposition Xrotation Yrotation Zrotation
					JOINT mixamorig2:RightToe_End
					{
						OFFSET -0.306573 0.162063 6.518644
						CHANNELS 6 Xposition Yposition Zposition Xrotation Yrotation Zrotation
						End Site
						{
							OFFSET -0.306572 0.162061 6.518645
						}
					}
				}
			}
		}
	}
}
MOTION
Frames: 3
Frame Time: 0.033333
-4.134988 95.944748 -1.549294 29.448412 -34.382657 16.296164 0.000002 8.951161 -0.286634 -1.092106 1.863152 2.782962 -2.327876 2.532547 3.225530 0.000003 11.934860 -0.382189 -2.369174 2.507077 3.209299 -0.000005 13.426777 -0.429966 -3.122056 -0.860570 1.143162 -0.000003 8.477273 0.443079 -3.122054 -0.860578 1.143158 -0.000001 21.306778 1.113628 -0.000000 0.000001 -0.000000 5.225266 11.895893 -0.427617 -0.444567 7.585114 -4.411241 10.405497 -3.014746 0.004710 21.448573 -52.405521 -66.556095 -0.322333 -1.192328 -8.592124 -34.333356 -1.346947 22.166829 2.777334 -1.335149 3.119187 6.371869 11.198700 -0.367752 2.221871 -1.068098 2.495344 -4.573045 -4.692940 2.462274 2.339350 -1.267397 1.553796 0.468030 -8.718669 -8.565718 2.048594 -0.536896 0.831258 -0.000000 0.000003 0.000003 8.911632 -0.521697 3.864258 -0.420246 -4.973008 2.202708 3.059850 -0.215412 0.228805 -0.726040 0.417084 9.666394 2.711094 -0.663361 0.226078 0.002427 -0.002641 -0.036872 2.368224 -0.577841 0.197349 -0.000001 -0.000002 -0.000003 8.960666 -0.277778 1.460130 -0.445260 -6.932587 2.216602 3.296588 -0.232031 0.133281 -0.443783 0.413182 10.781902 2.998504 -0.794625 0.145677 0.009065 -0.009789 -0.240378 2.642897 -0.688516 0.127916 0.000001 -0.000005 -0.000006 9.070102 -0.353675 -0.590423 -0.543392 -9.652442 3.011334 2.741219 -0.232655 -0.019843 0.081247 0.413009 12.801992 2.657960 -0.845857 0.000168 -0.016612 -0.049834 -1.868752 2.292750 -0.648130 -0.002019 -0.000001 0.000002 0.000002 8.657886 -0.562550 -2.660487 -0.646304 -4.699386 6.032379 2.459381 -0.319013 0.020668 -0.565772 -3.825126 5.099171 2.026385 -0.468318 0.024188 0.002778 -0.018331 -0.595964 1.799402 -0.396177 0.020882 -0.000001 0.000001 0.000003 -5.225274 11.895902 -0.432317 0.008571 -0.266792 -8.888944 -10.405466 -3.014746 -0.004700 -88.524852 26.770667 40.356682 -2.192983 21.255258 8.973643 -6.803516 -0.297648 -52.663224 -2.497946 -1.215527 2.916471 6.105638 -11.242546 0.022584 -1.998383 -0.972390 2.333187 -2.945810 3.512708 -1.231676 -2.439003 -1.285558 1.731896 -3.224836 3.258521 -2.310221 -2.188529 -1.177304 1.346566 -0.000003 0.000004 -0.000003 -8.954491 -0.355983 3.811162 -0.706424 3.947131 -3.816139 -3.007706 -0.359816 0.288435 -0.748260 -0.350543 -8.038632 -2.754245 -0.734647 0.284442 0.599653 0.383992 6.920127 -2.397968 -0.334750 0.232316 0.000000 -0.000000 -0.000002 -8.892275 -0.453006 1.476755 -0.165524 8.280990 2.767062 -3.195778 -0.007677 0.063554 -0.344532 -0.460215 -14.398474 -3.083313 -0.799866 0.088804 -0.151824 -0.232035 -6.943827 -2.562043 -1.008837 0.085791 0.000000 0.000001 0.000000 -9.127318 -0.285718 -0.628793 -0.789740 9.943764 -3.435044 -2.851371 -0.321892 -0.027776 0.114889 -0.326521 -11.489878 -2.564903 -0.830018 -0.010151 -0.085673 0.159440 6.072020 -2.238471 -0.470092 -0.015789 0.000000 0.000001 0.000003 -8.514372 -0.713722 -2.584848 -0.570799 10.949090 -0.031208 -2.533950 -0.132904 -0.068517 0.276472 -0.287462 -10.679986 -2.084197 -0.507660 -0.046601 -0.022474 0.016711 0.815919 -1.899964 -0.434234 -0.043108 0.000000 0.000001 0.000003 8.899671 -4.969729 -0.781567 -24.051657 10.867430 4.085928 15.042926 11.660617 4.122068 -12.147415 13.182994 -10.059042 0.357713 -8.547657 13.291752 -0.000207 -0.000002 -0.000000 0.000001 0.000000 0.000000 -8.899666 -4.969727 -0.953890 -45.345609 2.350616 3.564791 24.995806 -4.783640 -2.693634 -3.754813 -0.091469 1.801824 -0.357718 -8.547737 13.332319 -0.000112 -0.000006 -0.000000 -0.306574 0.162061 6.518644 0.000001 -0.000004 0.000000 
-3.349680 95.985558 -1.874495 29.709226 -31.501177 17.132688 0.000001 8.951165 -0.286640 -0.848909 1.565441 3.028751 -1.939914 1.744701 3.123162 0.000001 11.934847 -0.382180 -1.971830 1.709048 3.118321 0.000002 13.426753 -0.429961 -4.699279 -0.676255 0.625908 -0.000001 8.477332 0.443078 -4.699279 -0.676255 0.625905 -0.000000 21.306763 1.113625 0.000001 -0.000002 0.000002 5.225274 11.895878 -0.427615 -0.433404 7.487192 -4.310910 10.405485 -3.014731 0.004697 20.015121 -52.499286 -66.543740 -0.462618 -2.767555 -8.597961 -35.744852 -4.149710 25.332594 2.777338 -1.335156 3.119174 6.371863 11.198700 -0.367754 2.221860 -1.068083 2.495341 -4.573048 -4.692934 2.462277 2.339352 -1.267401 1.553789 0.468029 -8.718669 -8.565714 2.048599 -0.536890 0.831261 0.000002 0.000001 0.000000 8.911636 -0.521673 3.864242 -0.420249 -4.973007 2.202706 3.059838 -0.215430 0.228796 -0.726037 0.417084 9.666398 2.711092 -0.663388 0.226081 0.002428 -0.002643 -0.036874 2.368209 -0.577835 0.197342 -0.000004 0.000001 -0.000003 8.960676 -0.277768 1.460120 -0.445258 -6.932595 2.216600 3.296594 -0.232016 0.133274 -0.443781 0.413181 10.781897 2.998508 -0.794625 0.145675 0.009060 -0.009787 -0.240376 2.642887 -0.688505 0.127911 -0.000001 0.000000 -0.000005 9.070110 -0.353681 -0.590433 -0.543392 -9.652448 3.011334 2.741215 -0.232657 -0.019845 0.081245 0.413010 12.801988 2.657960 -0.845875 0.000172 -0.016615 -0.049833 -1.868752 2.292758 -0.648117 -0.002023 0.000000 -0.000001 0.000002 8.657890 -0.562542 -2.660496 -0.646306 -4.699393 6.032376 2.459383 -0.319028 0.020672 -0.565774 -3.825124 5.099170 2.026362 -0.468344 0.024186 0.002776 -0.018328 -0.595964 1.799417 -0.396190 0.020881 -0.000003 0.000001 -0.000001 -5.225268 11.895889 -0.432317 0.043948 -0.138383 -8.540565 -10.405485 -3.014757 -0.004686 -86.813337 28.702948 36.801572 -2.614203 25.239496 9.142021 -20.717740 2.109852 -56.830541 -2.497943 -1.215503 2.916493 6.105663 -11.242559 0.022583 -1.998376 -0.972374 2.333183 -2.945813 3.512706 -1.231672 -2.438982 -1.285556 1.731870 -3.224834 3.258515 -2.310220 -2.188534 -1.177303 1.346566 -0.000001 0.000000 -0.000001 -8.954490 -0.355959 3.811153 -0.706426 3.947129 -3.816132 -3.007702 -0.359800 0.288434 -0.748260 -0.350540 -8.038632 -2.754230 -0.734633 0.284435 0.599654 0.383980 6.920132 -2.397969 -0.334751 0.232354 -0.000000 -0.000002 0.000002 -8.892300 -0.452994 1.476777 -0.165524 8.280986 2.767067 -3.195762 -0.007661 0.063543 -0.344532 -0.460217 -14.398472 -3.083324 -0.799867 0.088830 -0.151826 -0.232040 -6.943828 -2.562027 -1.008842 0.085769 -0.000001 -0.000001 -0.000003 -9.127358 -0.285721 -0.628767 -0.789734 9.943751 -3.435047 -2.851379 -0.321888 -0.027795 0.114886 -0.326518 -11.489889 -2.564888 -0.830012 -0.010135 -0.085670 0.159439 6.072021 -2.238459 -0.470081 -0.015767 0.000001 -0.000001 0.000001 -8.514400 -0.713723 -2.584837 -0.570788 10.949072 -0.031208 -2.533965 -0.132939 -0.068532 0.276472 -0.287463 -10.679988 -2.084219 -0.507664 -0.046606 -0.022473 0.016710 0.815919 -1.899962 -0.434221 -0.043110 0.000002 -0.000004 0.000003 8.899668 -4.969726 -0.781572 -25.328783 9.780812 2.472434 14.551044 11.483295 3.592798 -11.608242 11.122186 -9.295168 0.357715 -8.547657 13.291754 -0.147636 -0.000003 -0.000001 0.000001 0.000000 0.000000 -8.899667 -4.969727 -0.953895 -46.797372 1.933382 1.389443 25.336752 -5.695457 -3.339480 -3.609258 -0.228678 2.634840 -0.357718 -8.547737 13.332316 -0.000104 0.000012 0.000000 -0.306571 0.162061 6.518646 0.000001 -0.000003 0.000000 
-2.667238 95.904709 -2.073730 30.138387 -28.312667 18.356104 -0.000000 8.951159 -0.286646 -0.652894 1.430365 3.306501 -1.622899 1.151300 2.737706 0.000005 11.934857 -0.382185 -1.647932 1.105796 2.738337 -0.000006 13.426766 -0.429963 -6.293189 -0.444314 0.219576 -0.000005 8.477286 0.443080 -6.293188 -0.444321 0.219588 -0.000002 21.306778 1.113629 0.000000 0.000001 0.000000 5.225269 11.895885 -0.427615 -0.409921 7.301485 -4.122815 10.405491 -3.014755 0.004704 20.307749 -52.672626 -65.768376 -0.546777 -3.710359 -8.603296 -34.922955 -5.889401 25.753717 2.777346 -1.335146 3.119176 6.371864 11.198702 -0.367754 2.221863 -1.068098 2.495348 -4.573045 -4.692941 2.462278 2.339336 -1.267416 1.553791 0.468024 -8.718672 -8.565715 2.048597 -0.536892 0.831261 -0.000000 0.000001 0.000001 8.911659 -0.521671 3.864249 -0.420248 -4.973010 2.202703 3.059832 -0.215399 0.228810 -0.726039 0.417087 9.666394 2.711097 -0.663370 0.226075 0.002427 -0.002641 -0.036870 2.368196 -0.577847 0.197347 -0.000000 -0.000001 -0.000004 8.960679 -0.277771 1.460125 -0.445259 -6.932592 2.216599 3.296594 -0.232017 0.133282 -0.443785 0.413183 10.781895 2.998524 -0.794640 0.145687 0.009062 -0.009791 -0.240383 2.642891 -0.688517 0.127902 0.000000 -0.000004 -0.000007 9.070115 -0.353668 -0.590430 -0.543394 -9.652440 3.011332 2.741232 -0.232628 -0.019849 0.081242 0.413011 12.801987 2.657955 -0.845881 0.000176 -0.016609 -0.049832 -1.868750 2.292750 -0.648110 -0.002025 0.000000 -0.000001 0.000002 8.657892 -0.562546 -2.660492 -0.646301 -4.699394 6.032375 2.459368 -0.319019 0.020670 -0.565770 -3.825125 5.099173 2.026380 -0.468326 0.024184 0.002773 -0.018331 -0.595969 1.799425 -0.396188 0.020884 -0.000003 -0.000001 -0.000001 -5.225276 11.895895 -0.432317 0.089432 0.108052 -8.391432 -10.405492 -3.014727 -0.004694 -88.366570 30.810567 32.047657 -3.035711 28.978881 9.336091 -28.224193 3.210125 -45.033749 -2.497941 -1.215523 2.916487 6.105656 -11.242536 0.022585 -1.998376 -0.972376 2.333176 -2.945812 3.512705 -1.231672 -2.439004 -1.285571 1.731900 -3.224833 3.258516 -2.310221 -2.188534 -1.177316 1.346577 -0.000004 0.000003 0.000002 -8.954492 -0.355972 3.811175 -0.706423 3.947148 -3.816132 -3.007736 -0.359803 0.288449 -0.748262 -0.350537 -8.038631 -2.754232 -0.734647 0.284441 0.599655 0.383979 6.920132 -2.397978 -0.334746 0.232327 0.000000 -0.000002 -0.000001 -8.892276 -0.452995 1.476776 -0.165523 8.280993 2.767063 -3.195789 -0.007673 0.063539 -0.344530 -0.460224 -14.398472 -3.083305 -0.799884 0.088834 -0.151825 -0.232031 -6.943828 -2.562042 -1.008832 0.085760 -0.000002 0.000004 0.000000 -9.127337 -0.285731 -0.628773 -0.789735 9.943768 -3.435037 -2.851400 -0.321876 -0.027779 0.114884 -0.326523 -11.489881 -2.564850 -0.830029 -0.010135 -0.085672 0.159441 6.072024 -2.238476 -0.470092 -0.015791 -0.000001 0.000004 0.000002 -8.514375 -0.713717 -2.584846 -0.570795 10.949098 -0.031200 -2.533967 -0.132924 -0.068525 0.276472 -0.287462 -10.679985 -2.084176 -0.507677 -0.046598 -0.022474 0.016713 0.815919 -1.899945 -0.434208 -0.043099 -0.000000 0.000002 0.000002 8.899667 -4.969736 -0.781583 -26.636093 8.516962 0.351174 13.950582 11.147739 3.092327 -11.038813 9.618805 -8.538750 0.357711 -8.547659 13.291755 -0.000019 -0.000001 -0.000002 0.000001 -0.000000 0.000000 -8.899671 -4.969723 -0.953900 -48.806035 1.791942 -1.160349 26.489301 -6.642450 -4.066022 -3.955479 -0.332433 3.615375 -0.357716 -8.547737 13.332316 -0.000113 0.000017 0.000003 -0.306571 0.162061 6.518647 0.000001 -0.000007 0.000000 
